# xmcd
#
# Track frame offsets: 
#        150
#        26965
#        51063
#        72234
#        88363
#        106745
#        123593
#        145235
#        164259
#        186847
#        208749
#        228930
#        244397
#        265135
#        291511
#
# Disc length: 4243 seconds
#
# Revision: 1
# Processed by: cddbd v1.5.2PL0 Copyright (c) Steve Scherf et al.
# Submitted via: ExactAudioCopyFreeDBPlugin 1.0
#
DISCID=e810910f
DTITLE=Dynasty - Right Back At Cha!
DYEAR=1982
DGENRE=Funk
TTITLE0=Check It Out
TTITLE1=Strokin'
TTITLE2=The Only One
TTITLE3=Questions
TTITLE4=Does That Ring A Bell
TTITLE5=Straight Out
TTITLE6=Right Back At Cha!
TTITLE7=That's The Way I Feel About You
TTITLE8=I Can't Stop Lovin' You
TTITLE9=All's Fair In Love and War
TTITLE10=Strokin' (Radio Version)
TTITLE11=Check It Out (Radio Version)
TTITLE12=Questions (Extended Version) 
TTITLE13=Straight Out (Extended Version)
TTITLE14=Right Back At Cha! (Extended Version)
EXTD=
EXTT0=
EXTT1=
EXTT2=
EXTT3=
EXTT4=
EXTT5=
EXTT6=
EXTT7=
EXTT8=
EXTT9=
EXTT10=
EXTT11=
EXTT12=
EXTT13=
EXTT14=
PLAYORDER=
